<svg width="162" height="104" viewBox="0 0 162 104" fill="none" xmlns="http://www.w3.org/2000/svg">
<path fill-rule="evenodd" clip-rule="evenodd" d="M31.0262 64.3895C30.9191 62.8639 26.0677 57.4475 24.4178 57.4465C22.7699 57.4475 18.2331 62.8178 17.9797 64.9445C17.3716 70.0624 31.3688 69.26 31.0262 64.3895Z" fill="#F87661" stroke="#F87661" stroke-width="1.5" stroke-linecap="round" stroke-linejoin="round"/>
<path fill-rule="evenodd" clip-rule="evenodd" d="M16.1 58.3968C13.9283 58.3968 10.6165 49.3271 16.3224 43.6212C20.5838 39.3598 27.4918 39.3598 31.7521 43.6202C37.0613 48.9294 35.2191 57.5633 32.2159 57.5633C30.487 57.5633 27.3926 52.5216 24.2902 52.5206C21.1879 52.5196 18.2718 58.3968 16.1 58.3968Z" fill="#42766C" stroke="#42766C" stroke-width="1.5" stroke-linecap="round" stroke-linejoin="round"/>
<path d="M72.411 50.6176C72.411 51.5936 72.187 52.4896 71.739 53.3056C71.291 54.1056 70.603 54.7536 69.675 55.2496C68.747 55.7456 67.595 55.9936 66.219 55.9936H63.675V62.0416H59.571V45.1936H66.219C67.563 45.1936 68.699 45.4256 69.627 45.8896C70.555 46.3536 71.251 46.9936 71.715 47.8096C72.179 48.6256 72.411 49.5616 72.411 50.6176ZM65.907 52.7296C66.691 52.7296 67.275 52.5456 67.659 52.1776C68.043 51.8096 68.235 51.2896 68.235 50.6176C68.235 49.9456 68.043 49.4256 67.659 49.0576C67.275 48.6896 66.691 48.5056 65.907 48.5056H63.675V52.7296H65.907ZM87.1716 55.1296C87.1716 55.5136 87.1476 55.9136 87.0996 56.3296H77.8116C77.8756 57.1616 78.1396 57.8016 78.6036 58.2496C79.0836 58.6816 79.6676 58.8976 80.3556 58.8976C81.3796 58.8976 82.0916 58.4656 82.4916 57.6016H86.8596C86.6356 58.4816 86.2276 59.2736 85.6356 59.9776C85.0596 60.6816 84.3316 61.2336 83.4516 61.6336C82.5716 62.0336 81.5876 62.2336 80.4996 62.2336C79.1876 62.2336 78.0196 61.9536 76.9956 61.3936C75.9716 60.8336 75.1716 60.0336 74.5956 58.9936C74.0196 57.9536 73.7316 56.7376 73.7316 55.3456C73.7316 53.9536 74.0116 52.7376 74.5716 51.6976C75.1476 50.6576 75.9476 49.8576 76.9716 49.2976C77.9956 48.7376 79.1716 48.4576 80.4996 48.4576C81.7956 48.4576 82.9476 48.7296 83.9556 49.2736C84.9636 49.8176 85.7476 50.5936 86.3076 51.6016C86.8836 52.6096 87.1716 53.7856 87.1716 55.1296ZM82.9716 54.0496C82.9716 53.3456 82.7316 52.7856 82.2516 52.3696C81.7716 51.9536 81.1716 51.7456 80.4516 51.7456C79.7636 51.7456 79.1796 51.9456 78.6996 52.3456C78.2356 52.7456 77.9476 53.3136 77.8356 54.0496H82.9716ZM96.8006 58.5616V62.0416H94.7126C93.2246 62.0416 92.0646 61.6816 91.2326 60.9616C90.4006 60.2256 89.9846 59.0336 89.9846 57.3856V52.0576H88.3526V48.6496H89.9846V45.3856H94.0886V48.6496H96.7766V52.0576H94.0886V57.4336C94.0886 57.8336 94.1846 58.1216 94.3766 58.2976C94.5686 58.4736 94.8886 58.5616 95.3366 58.5616H96.8006ZM105.183 62.2096C103.951 62.2096 102.847 62.0096 101.871 61.6096C100.895 61.2096 100.111 60.6176 99.5186 59.8336C98.9426 59.0496 98.6386 58.1056 98.6066 57.0016H102.975C103.039 57.6256 103.255 58.1056 103.623 58.4416C103.991 58.7616 104.471 58.9216 105.063 58.9216C105.671 58.9216 106.151 58.7856 106.503 58.5136C106.855 58.2256 107.031 57.8336 107.031 57.3376C107.031 56.9216 106.887 56.5776 106.599 56.3056C106.327 56.0336 105.983 55.8096 105.567 55.6336C105.167 55.4576 104.591 55.2576 103.839 55.0336C102.751 54.6976 101.863 54.3616 101.175 54.0256C100.487 53.6896 99.8946 53.1936 99.3986 52.5376C98.9026 51.8816 98.6546 51.0256 98.6546 49.9696C98.6546 48.4016 99.2226 47.1776 100.359 46.2976C101.495 45.4016 102.975 44.9536 104.799 44.9536C106.655 44.9536 108.151 45.4016 109.287 46.2976C110.423 47.1776 111.031 48.4096 111.111 49.9936H106.671C106.639 49.4496 106.439 49.0256 106.071 48.7216C105.703 48.4016 105.231 48.2416 104.655 48.2416C104.159 48.2416 103.759 48.3776 103.455 48.6496C103.151 48.9056 102.999 49.2816 102.999 49.7776C102.999 50.3216 103.255 50.7456 103.767 51.0496C104.279 51.3536 105.079 51.6816 106.167 52.0336C107.255 52.4016 108.135 52.7536 108.807 53.0896C109.495 53.4256 110.087 53.9136 110.583 54.5536C111.079 55.1936 111.327 56.0176 111.327 57.0256C111.327 57.9856 111.079 58.8576 110.583 59.6416C110.103 60.4256 109.399 61.0496 108.471 61.5136C107.543 61.9776 106.447 62.2096 105.183 62.2096ZM122.084 48.5056C123.62 48.5056 124.852 49.0176 125.78 50.0416C126.708 51.0496 127.172 52.4416 127.172 54.2176V62.0416H123.092V54.7696C123.092 53.8736 122.86 53.1776 122.396 52.6816C121.932 52.1856 121.308 51.9376 120.524 51.9376C119.74 51.9376 119.116 52.1856 118.652 52.6816C118.188 53.1776 117.956 53.8736 117.956 54.7696V62.0416H113.852V44.2816H117.956V50.4496C118.372 49.8576 118.94 49.3856 119.66 49.0336C120.38 48.6816 121.188 48.5056 122.084 48.5056ZM136.12 62.2336C134.808 62.2336 133.624 61.9536 132.568 61.3936C131.528 60.8336 130.704 60.0336 130.096 58.9936C129.504 57.9536 129.208 56.7376 129.208 55.3456C129.208 53.9696 129.512 52.7616 130.12 51.7216C130.728 50.6656 131.56 49.8576 132.616 49.2976C133.672 48.7376 134.856 48.4576 136.168 48.4576C137.48 48.4576 138.664 48.7376 139.72 49.2976C140.776 49.8576 141.608 50.6656 142.216 51.7216C142.824 52.7616 143.128 53.9696 143.128 55.3456C143.128 56.7216 142.816 57.9376 142.192 58.9936C141.584 60.0336 140.744 60.8336 139.672 61.3936C138.616 61.9536 137.432 62.2336 136.12 62.2336ZM136.12 58.6816C136.904 58.6816 137.568 58.3936 138.112 57.8176C138.672 57.2416 138.952 56.4176 138.952 55.3456C138.952 54.2736 138.68 53.4496 138.136 52.8736C137.608 52.2976 136.952 52.0096 136.168 52.0096C135.368 52.0096 134.704 52.2976 134.176 52.8736C133.648 53.4336 133.384 54.2576 133.384 55.3456C133.384 56.4176 133.64 57.2416 134.152 57.8176C134.68 58.3936 135.336 58.6816 136.12 58.6816ZM149.409 50.5456C149.809 49.9216 150.361 49.4176 151.065 49.0336C151.769 48.6496 152.593 48.4576 153.537 48.4576C154.641 48.4576 155.641 48.7376 156.537 49.2976C157.433 49.8576 158.137 50.6576 158.649 51.6976C159.177 52.7376 159.441 53.9456 159.441 55.3216C159.441 56.6976 159.177 57.9136 158.649 58.9696C158.137 60.0096 157.433 60.8176 156.537 61.3936C155.641 61.9536 154.641 62.2336 153.537 62.2336C152.609 62.2336 151.785 62.0416 151.065 61.6576C150.361 61.2736 149.809 60.7776 149.409 60.1696V68.4256H145.305V48.6496H149.409V50.5456ZM155.265 55.3216C155.265 54.2976 154.977 53.4976 154.401 52.9216C153.841 52.3296 153.145 52.0336 152.313 52.0336C151.497 52.0336 150.801 52.3296 150.225 52.9216C149.665 53.5136 149.385 54.3216 149.385 55.3456C149.385 56.3696 149.665 57.1776 150.225 57.7696C150.801 58.3616 151.497 58.6576 152.313 58.6576C153.129 58.6576 153.825 58.3616 154.401 57.7696C154.977 57.1616 155.265 56.3456 155.265 55.3216Z" fill="#42766C"/>
</svg>
